<?xml version="1.0" encoding="UTF-8" standalone="no"?>
<svg
   xmlns:dc="http://purl.org/dc/elements/1.1/"
   xmlns:cc="http://creativecommons.org/ns#"
   xmlns:rdf="http://www.w3.org/1999/02/22-rdf-syntax-ns#"
   xmlns:svg="http://www.w3.org/2000/svg"
   xmlns="http://www.w3.org/2000/svg"
   xmlns:sodipodi="http://sodipodi.sourceforge.net/DTD/sodipodi-0.dtd"
   xmlns:inkscape="http://www.inkscape.org/namespaces/inkscape"
   width="1700"
   height="630"
   viewBox="0 0 1360 504"
   version="1.1"
   id="svg2985"
   inkscape:version="0.48.3.1 r9886"
   sodipodi:docname="fablogica_logo_base_complete.svg">
  <metadata
     id="metadata3003">
    <rdf:RDF>
      <cc:Work
         rdf:about="">
        <dc:format>image/svg+xml</dc:format>
        <dc:type
           rdf:resource="http://purl.org/dc/dcmitype/StillImage" />
        <dc:title></dc:title>
      </cc:Work>
    </rdf:RDF>
  </metadata>
  <defs
     id="defs3001" />
  <sodipodi:namedview
     pagecolor="#ffffff"
     bordercolor="#666666"
     borderopacity="1"
     objecttolerance="10"
     gridtolerance="10"
     guidetolerance="10"
     inkscape:pageopacity="0"
     inkscape:pageshadow="2"
     inkscape:window-width="1920"
     inkscape:window-height="1060"
     id="namedview2999"
     showgrid="false"
     inkscape:zoom="0.41640625"
     inkscape:cx="1050.9807"
     inkscape:cy="241.52094"
     inkscape:window-x="-2"
     inkscape:window-y="-3"
     inkscape:window-maximized="1"
     inkscape:current-layer="svg2985" />
  <rect
     style="fill:#ffffff;stroke:#000000;stroke-width:1.97249757999999997;stroke-linejoin:round;stroke-miterlimit:4;stroke-opacity:1;stroke-dasharray:none;stroke-dashoffset:0;fill-opacity:1"
     id="rect4567"
     width="1278.0275"
     height="334.0275"
     x="45.99485"
     y="91.214401"
     rx="621995.25"
     ry="0" />
  <path
     d="m 351.79483,171.94843 c 4.7147,-1.15643 9.6073,-1.37882 14.4554,-1.33434 10.2299,0 20.4153,-0.0445 30.6008,0.0445 1.5567,-0.089 2.8466,1.28986 2.8466,2.80211 -0.089,1.8236 -0.7117,3.51376 -1.112,5.29288 -0.6227,2.0015 -0.6227,4.58122 -2.7131,5.82661 -1.3344,1.11194 -3.1135,0.75612 -4.7147,0.8006 -8.4508,0 -16.9016,-0.0445 -25.3524,0 -1.9126,0.35582 -4.3144,-0.13343 -5.6487,1.60121 -1.0675,1.42329 -1.5123,3.20241 -1.8681,4.89257 -2.1794,9.38485 -4.6702,18.76969 -6.6717,28.19902 42.9657,-0.089 85.9759,0 128.9416,-0.0445 3.5582,0.0445 7.1165,-0.17791 10.6747,0.31134 3.4693,-0.17791 6.9386,0.13344 10.3634,0.71165 4.5367,0.71165 9.5182,2.66868 11.6087,7.11647 2.5352,5.33736 0.9785,11.38636 -0.1779,16.90162 -2.8466,11.11949 -5.4263,22.32793 -8.3174,33.44742 -0.3113,1.2009 -0.4003,2.66868 -1.4678,3.55823 -1.3788,1.4233 -3.4692,1.51225 -5.3373,1.64569 -4.8926,0 -9.7852,0.0445 -14.6777,0 -1.5568,-0.13344 -3.3359,-0.13344 -4.5813,-1.24538 -0.1334,-0.57822 -0.2668,-1.20091 -0.4003,-1.77912 0.8896,-3.95854 1.9126,-7.82812 2.7132,-11.78666 -18.9476,-0.0445 -37.9397,0 -56.8873,-0.0445 -1.957,0.26687 -4.0475,0.089 -5.7377,1.24539 -0.6671,1.28986 -1.3343,2.6242 -1.6456,4.04749 -1.6013,7.07199 -3.6028,14.05503 -5.115,21.12702 -0.2224,0.80061 0.2224,1.51225 0.5337,2.2239 2.4018,0.71165 4.9816,0.84508 7.4723,0.8006 20.8157,0 41.5869,-0.0445 62.3581,0 1.2009,0 2.3573,-0.4003 3.5582,-0.35582 40.7418,0 81.5281,0 122.2699,0 1.2009,0.0445 2.3129,-0.57821 3.3803,-0.97851 1.8236,-2.53525 2.046,-5.73766 2.9356,-8.62873 0.8006,-4.2254 2.1349,-8.36185 2.98,-12.63173 1.6457,-6.40483 3.069,-12.89861 4.7591,-19.30343 1.2899,-5.96005 2.8466,-11.92009 4.2699,-17.88014 0.1335,-0.97851 0.089,-1.95702 0.1335,-2.93554 -0.8006,-0.66717 -1.8236,-1.11195 -2.8911,-1.02299 -19.7927,-0.0445 -39.6299,0 -59.467,-0.0445 -1.0675,4.75914 -2.2684,9.42932 -3.3803,14.14399 -2.5353,9.78514 -4.7592,19.65925 -7.2944,29.4444 -0.2224,1.77911 -0.7562,3.8251 -2.4908,4.67018 -3.2914,1.51225 -7.0275,0.75613 -10.5413,0.93404 -3.9585,-0.13344 -8.006,0.4003 -11.9201,-0.44478 -1.2453,-0.22239 -1.6012,-1.51225 -1.8236,-2.53524 1.112,-4.75914 2.4463,-9.47381 3.4693,-14.23295 2.2239,-8.62872 4.1365,-17.3464 6.4049,-25.93064 0.7116,-3.8251 1.8235,-7.56125 2.7131,-11.34188 3.3359,-13.83264 6.6717,-27.66528 10.141,-41.49792 0.8006,-4.31436 2.1794,-8.53977 3.069,-12.85413 0.4003,-2.40181 2.8021,-4.49227 5.2928,-4.26988 6.049,0 12.098,-0.0445 18.1915,0 1.3344,-0.089 2.5797,0.84508 2.8911,2.13494 0.2668,1.51225 -0.1335,3.0245 -0.5338,4.4478 -3.6471,14.27742 -6.983,28.59932 -10.6302,42.87674 19.5258,-0.089 39.0517,0 58.533,-0.0445 6.6272,-0.0445 13.5213,0.089 19.6592,2.80211 3.2914,1.46777 5.5153,4.53675 6.3159,8.00603 -0.044,3.46928 0.2669,6.93856 -0.5337,10.36336 -3.8696,16.27893 -7.8281,32.51338 -11.7422,48.79231 -1.6902,6.27139 -4.4033,12.85412 -9.8741,16.76818 -4.7591,3.60272 -10.8526,4.75914 -16.6348,5.38184 -5.3373,0.62269 -10.7191,0.22239 -16.0565,0.35582 -19.5703,0 -39.1406,0 -58.7109,0 -2.6687,0 -5.3373,-0.17791 -8.006,0.31134 -19.5703,0.0445 -39.1406,0 -58.7109,0 -1.0675,0 -2.0905,-0.31134 -3.1135,-0.35582 -21.3494,0.0445 -42.6988,0.0445 -64.0482,0.0445 -5.3374,-0.48926 -11.2084,-1.15643 -15.4338,-4.80362 -2.5353,-2.49076 -3.4693,-6.18243 -3.3359,-9.60724 0.1779,-5.91556 2.0905,-11.60874 3.2024,-17.39087 1.5123,-6.4493 3.3803,-13.20995 8.184,-18.05805 4.937,-5.29287 12.4093,-7.2499 19.3923,-7.69468 3.069,-0.57822 6.2714,0.089 9.3404,-0.57822 18.6363,-0.0445 37.317,0.0445 55.9977,-0.0445 2.135,0.0445 3.158,-2.09047 3.6472,-3.82511 1.112,-4.35884 2.135,-8.71768 3.2914,-13.03204 0.2224,-0.8006 -0.2669,-1.51225 -0.5337,-2.22389 -2.5353,-0.62269 -5.115,-0.75613 -7.6947,-0.66717 -44.2111,0 -88.4666,0 -132.6777,-0.0445 -2.4463,10.98605 -5.3374,21.88315 -7.8726,32.82472 -3.4693,14.14399 -6.8496,28.33246 -10.3634,42.47644 -0.4448,0.97852 -1.2898,1.64569 -2.1349,2.31286 -1.6012,0.35582 -3.2024,0.75612 -4.8481,0.66716 -4.7592,0 -9.5183,0.0445 -14.2774,0 -1.5123,-0.22238 -3.6472,-0.17791 -4.3589,-1.86807 -0.1779,-1.46777 0.044,-2.93554 0.4003,-4.35884 1.7791,-6.67169 3.2024,-13.43234 4.9815,-20.10403 3.3804,-14.45533 6.9831,-28.86619 10.4524,-43.27704 0.8895,-2.89107 1.2009,-5.87109 2.2239,-8.71768 -3.8251,0.13344 -7.6058,0.0445 -11.4309,0.089 -1.2898,0 -3.1579,-0.48926 -3.4248,-2.00151 -0.1779,-1.02299 0,-2.04599 0.3114,-3.0245 0.6671,-2.2239 0.8006,-4.58123 1.6901,-6.76065 0.6672,-1.55673 2.4018,-2.35733 3.9586,-2.71315 4.1364,-0.13344 8.2729,0 12.4093,-0.0445 0.5338,-3.15793 1.6457,-6.18244 2.135,-9.34037 1.1564,-4.26988 2.1349,-8.53977 3.2469,-12.80965 1.3343,-5.96004 2.98,-12.00904 6.5827,-17.03505 3.3803,-4.67019 8.7177,-7.56125 14.2329,-8.89559 z"
     id="path2989"
     inkscape:connector-curvature="0"
     style="fill:#de5512;stroke:#fe4819;stroke-width:0.04169808000000000;fill-opacity:1" />
  <path
     style="fill:#000000;stroke:#2e2e2e;stroke-width:0.04169808000000000"
     d="m 707.15143,170.63633 c -2.8799,0.006 -5.7599,0.0222 -8.651,0.0222 -2.4463,-0.17791 -4.8036,1.64568 -5.5152,3.91406 -9.8741,41.00866 -19.8372,82.01733 -29.7113,122.98152 -0.8006,3.46928 -0.9785,7.29438 0.8451,10.45232 1.5122,2.75763 4.5812,4.49227 7.6947,4.44779 15.7007,0.0445 31.4459,0.0445 47.1466,0 1.4678,0.089 2.5352,-1.46777 4.0475,-0.88956 6.1379,1.24538 12.4093,0.84508 18.6362,0.93404 18.7697,-0.0445 37.5394,0 56.3536,-0.0445 7.6947,-0.35582 16.0565,-1.37881 22.15,-6.62721 5.7377,-4.98153 7.9616,-12.58726 9.5628,-19.74821 2.7576,-11.43083 5.5152,-22.81719 8.2729,-34.24802 1.0674,-4.58123 2.4018,-9.11798 3.0245,-13.78816 0.3558,-3.60272 0.4447,-7.51678 -1.5568,-10.67471 -2.0015,-3.11346 -5.5597,-4.71466 -9.029,-5.60422 -5.6042,-1.28986 -11.4308,-1.28986 -17.1685,-1.33434 l -44.8782,0 c -6.8496,0.0445 -13.6992,-0.22239 -20.5044,0.57821 -5.4707,0.57822 -11.075,2.04599 -15.4783,5.51527 -4.1364,3.15793 -6.5827,7.91707 -8.1394,12.76517 -1.6457,5.07049 -2.6687,10.36336 -4.0475,15.5228 -2.1795,8.94007 -4.3589,17.83566 -6.5383,26.73125 -1.2009,5.55974 -3.2024,11.07501 -3.069,16.81266 -5.3818,0.089 -10.7636,0 -16.1455,0.0445 -1.2009,-0.0445 -2.5797,0.089 -3.5137,-0.84508 -1.1565,-1.33434 -1.3788,-3.24689 -0.9341,-4.89257 9.2959,-38.1176 18.5473,-76.27968 27.8432,-114.44176 0.3114,-1.42329 0.7562,-2.84659 0.9341,-4.31436 0.1779,-1.64568 -1.2009,-3.4248 -2.9801,-3.24689 -2.891,-0.0222 -5.771,-0.0278 -8.6509,-0.0222 z m 51.4276,64.04824 c 2.9488,-0.0139 5.9156,0.10564 8.8622,0.0222 14.8112,0 29.6224,-0.0445 44.4335,0.0445 1.2899,0.089 3.4693,0 3.6472,1.73464 0.089,1.73464 -0.5337,3.4248 -0.8896,5.07049 -3.8695,16.3234 -7.7836,32.60233 -11.6977,48.88126 -0.5782,2.13494 -0.8895,4.40331 -2.1349,6.27139 -1.1119,1.55673 -3.2469,1.51225 -4.9371,1.55673 -18.2359,0.0445 -36.4274,0 -54.6633,0.0445 -1.5568,-0.13343 -3.3804,0.13344 -4.6702,-0.93403 -0.8006,-1.023 -0.3559,-2.49077 -0.1779,-3.64719 4.4033,-18.05805 8.8066,-36.1161 13.1654,-54.17414 0.5338,-1.95703 1.4233,-4.40332 3.7807,-4.62571 1.7513,-0.18347 3.5124,-0.23629 5.2817,-0.24463 z"
     id="path2991"
     inkscape:connector-curvature="0" />
  <path
     d="m 869.29573,227.32347 c 6.0935,-5.55974 14.7667,-6.58273 22.6838,-6.98304 18.5028,-0.089 37.0501,0 55.5974,-0.0445 6.2714,0.0445 12.5873,-0.22239 18.7697,0.88956 3.7806,0.66717 7.7837,1.95703 10.3634,4.98153 2.046,2.4018 2.6687,5.64869 2.6687,8.71767 -0.1335,5.78214 -1.9571,11.34188 -3.2469,16.9461 -5.026,20.59329 -10.0521,41.18658 -15.0781,61.77987 -1.957,7.6502 -3.2024,15.87862 -8.1839,22.19449 -4.4923,5.6487 -11.7422,8.00603 -18.6807,8.71768 -5.2929,0.66717 -10.6303,0.44478 -15.9676,0.48926 -39.8967,0 -79.749,0 -119.6457,0 -1.5122,0.089 -2.98,-0.93404 -3.2914,-2.40181 0.8451,-2.84659 1.4678,-5.69318 2.2684,-8.53977 0.4893,-1.95703 2.5797,-3.29136 4.5812,-3.29136 41.0532,0 82.1508,0 123.2484,0 1.7791,-0.089 3.8251,0.089 5.3374,-1.11195 1.5122,-1.73464 1.7791,-4.0475 2.3573,-6.18244 6.138,-25.30795 12.2759,-50.6159 18.4584,-75.92385 0.7116,-3.33585 1.6901,-6.62722 2.3128,-9.96306 0.1779,-0.80061 -0.1334,-1.60121 -0.3558,-2.35733 -1.3344,-0.53374 -2.7132,-0.71165 -4.1365,-0.66717 -18.2359,-0.0445 -36.4719,-0.0445 -54.7078,0 -1.7792,0.0445 -3.8696,-0.089 -5.2929,1.2009 -1.4678,1.86808 -1.7347,4.31436 -2.3573,6.53826 -4.5368,18.68074 -9.0291,37.317 -13.6103,55.95326 16.4568,0.0445 32.8692,0 49.326,0.0445 1.3789,-0.0445 2.3574,1.20091 2.7132,2.44629 -0.6227,2.66868 -1.2454,5.33736 -1.8681,8.05051 -0.4447,2.17942 -2.7576,3.69167 -4.8925,3.69167 -23.5734,-0.0445 -47.1467,0 -70.72,-0.0445 -1.6901,0.17791 -3.3803,-1.55673 -2.8466,-3.24689 4.8481,-20.28194 9.8297,-40.51941 14.6778,-60.75687 1.8236,-7.51678 3.5582,-15.70072 9.5182,-21.12703 z"
     id="path2993"
     inkscape:connector-curvature="0"
     style="fill:#000000;stroke:#2e2e2e;stroke-width:0.04169808000000000" />
  <path
     d="m 1002.4182,225.0551 c 0.4448,-2.6242 2.8911,-4.93705 5.6043,-4.75914 5.8266,0 11.6087,-0.0445 17.4353,0.0445 1.2899,-0.089 2.3129,0.93404 2.7576,2.09047 0.4893,1.2009 -0.089,2.44629 -0.3558,3.64719 -5.3818,22.10554 -10.7636,44.1666 -16.19,66.27214 -0.4892,1.64568 -0.2668,3.51376 0.8006,4.8481 0.8451,1.06747 2.3129,1.06747 3.6028,1.11194 5.3818,-0.0445 10.7636,0 16.1455,-0.0445 -0.089,-4.49228 1.0229,-8.85111 2.1349,-13.16548 2.7131,-10.98605 5.3818,-21.92762 8.095,-32.91368 1.7791,-6.67169 2.8466,-13.65473 6.3603,-19.7482 2.4463,-4.40332 6.5828,-7.73917 11.2974,-9.47381 7.6502,-2.80211 15.9676,-2.66867 24.0181,-2.66867 22.1056,0 44.2111,0 66.3166,0 1.6902,-0.13344 3.8696,1.06747 3.4693,3.0245 -0.3558,2.44628 -1.0675,4.84809 -1.6457,7.2499 -0.4003,2.31286 -2.6686,4.0475 -4.9815,4.00302 -23.1285,-0.0445 -46.2571,-0.0445 -69.4301,0 -1.6457,0.0445 -3.6027,-0.089 -4.8925,1.15642 -0.9341,1.11195 -1.3344,2.57973 -1.6902,3.95854 -4.4033,17.79118 -8.8066,35.58236 -13.1655,53.37354 -0.2224,1.33434 -0.8451,3.0245 0.2224,4.13645 1.2899,0.84508 2.9356,0.66717 4.4478,0.75612 31.179,0 62.4026,0 93.5816,0 0.089,-5.47079 1.7791,-10.67471 2.8911,-15.96758 1.3788,-6.58274 3.2024,-13.34339 7.7391,-18.50283 3.4693,-4.00301 8.4953,-6.4493 13.6548,-7.51677 3.8251,-0.8006 7.6946,-1.2009 11.5642,-1.24538 18.6808,-0.17791 37.3615,-0.0445 56.0422,-0.089 1.7792,-0.0445 3.7362,0.26687 5.4263,-0.53373 1.6013,-0.75613 2.0905,-2.6242 2.5798,-4.18093 0.8006,-3.20241 1.5567,-6.40483 2.4018,-9.60724 0.3558,-1.46777 0.9785,-3.11345 0.4003,-4.58123 -0.9785,-1.24538 -2.7577,-1.11194 -4.1365,-1.15642 -25.6637,-0.0445 -51.3275,0 -76.9913,-0.0445 -1.5122,0.089 -3.2024,-1.11195 -2.98,-2.71316 0.4892,-3.0245 1.3788,-5.96004 2.2239,-8.89558 0.8006,-1.8236 2.891,-2.75764 4.8036,-2.6242 24.9076,0 49.8153,0 74.7229,0 4.0031,0.0445 8.0506,-0.089 12.0536,0.44478 3.8696,0.44478 7.8726,1.15642 11.1639,3.38032 2.3574,1.55673 4.0031,4.13645 4.5368,6.93856 0.934,4.09197 0.044,8.31738 -0.8006,12.36487 -3.0245,12.23143 -6.0045,24.41839 -8.9846,36.64983 -0.2668,1.15642 -1.2009,2.09046 -2.1794,2.66867 -1.5567,0.88956 -3.3803,0.75613 -5.0705,0.75613 -5.2039,-0.0445 -10.4078,0.0889 -15.6117,-0.0445 -1.6457,0 -3.3359,-1.46777 -2.8466,-3.15793 0.8006,-3.82511 1.6901,-7.60573 2.6687,-11.38636 -19.2145,-0.0445 -38.429,0 -57.6435,0 -1.7346,0.0445 -3.6916,-0.13343 -5.1149,0.97852 -1.0675,1.11195 -1.4233,2.66867 -1.8681,4.09197 -1.5567,6.36034 -3.1135,12.76517 -4.6702,19.12551 -0.2668,1.33434 -0.8451,2.89107 -0.089,4.18093 1.1119,1.11195 2.8021,0.88956 4.2254,0.97852 38.6958,0.0445 77.3916,0 116.0429,0.0445 1.3344,0 2.7132,-0.089 4.0475,0.0445 1.4233,0.17791 2.8021,1.73464 2.2684,3.24689 -0.7116,2.75764 -1.2454,5.55975 -2.0905,8.2729 -0.934,1.86807 -3.1579,2.80211 -5.1594,2.66868 -37.9397,0 -75.8794,0.0445 -113.8191,-0.0445 -5.0705,-0.089 -10.1409,0.22239 -15.1669,-0.4003 -38.9627,0.13343 -77.9699,0 -116.9326,0.0445 -2.8466,0.0445 -5.6931,-0.13344 -8.4953,-0.53374 -1.5567,-0.4003 -2.8465,0.93404 -4.4033,0.75613 -16.1455,0 -32.291,0 -48.48089,0 -2.7132,0.0445 -5.5598,-0.84509 -7.3834,-2.93555 -2.891,-3.15793 -2.98,-7.91707 -2.0015,-11.87561 5.8266,-24.196 11.6977,-48.34753 17.52429,-72.49905 z"
     id="path2995"
     inkscape:connector-curvature="0"
     style="fill:#000000;stroke:#2e2e2e;stroke-width:0.04169808000000000" />
  <path
     sodipodi:type="star"
     style="fill:#de5512;stroke:#000000;stroke-width:35.12966536999999789;stroke-linejoin:round;stroke-miterlimit:4;stroke-opacity:1;stroke-dasharray:none;stroke-dashoffset:0;fill-opacity:1"
     id="path4702-8-5-0-7-0"
     sodipodi:sides="6"
     sodipodi:cx="151.22752"
     sodipodi:cy="105.67794"
     sodipodi:r1="199.20744"
     sodipodi:r2="172.51872"
     sodipodi:arg1="1.0460006"
     sodipodi:arg2="1.5695993"
     inkscape:flatsided="true"
     inkscape:rounded="0"
     inkscape:randomized="0"
     d="M 251.03767,278.0773 51.83037,278.31574 -47.979777,105.91638 51.417377,-66.721422 250.62468,-66.959863 350.43482,105.4395 z"
     transform="matrix(0,0.24207282,-0.24207282,0,175.31764,164.69549)" />
  <path
     sodipodi:type="star"
     style="fill:#de5512;stroke:#000000;stroke-width:35.12966536999999789;stroke-linejoin:round;stroke-miterlimit:4;stroke-opacity:1;stroke-dasharray:none;stroke-dashoffset:0;fill-opacity:1"
     id="path4702-8-5-0-7-3-1"
     sodipodi:sides="6"
     sodipodi:cx="151.22752"
     sodipodi:cy="105.67794"
     sodipodi:r1="199.20744"
     sodipodi:r2="172.51872"
     sodipodi:arg1="1.0460006"
     sodipodi:arg2="1.5695993"
     inkscape:flatsided="true"
     inkscape:rounded="0"
     inkscape:randomized="0"
     d="M 251.03767,278.0773 51.83037,278.31574 -47.979777,105.91638 51.417377,-66.721422 250.62468,-66.959863 350.43482,105.4395 z"
     transform="matrix(0,-0.24207282,0.24207282,0,124.49565,334.18764)" />
  <path
     sodipodi:type="star"
     style="fill:none;stroke:#000000;stroke-width:35.12992495;stroke-linejoin:round;stroke-miterlimit:4;stroke-opacity:1;stroke-dasharray:none;stroke-dashoffset:0"
     id="path4702-8-3-3"
     sodipodi:sides="6"
     sodipodi:cx="151.22752"
     sodipodi:cy="105.67794"
     sodipodi:r1="199.20744"
     sodipodi:r2="172.51872"
     sodipodi:arg1="1.0460006"
     sodipodi:arg2="1.5695993"
     inkscape:flatsided="true"
     inkscape:rounded="0"
     inkscape:randomized="0"
     d="M 251.03767,278.0773 51.83037,278.31574 -47.979777,105.91638 51.417377,-66.721422 250.62468,-66.959863 350.43482,105.4395 z"
     transform="matrix(0,0.24207282,-0.24207282,0,217.29564,188.77542)" />
  <path
     sodipodi:type="star"
     style="fill:none;stroke:#000000;stroke-width:35.12966537;stroke-linejoin:round;stroke-miterlimit:4;stroke-opacity:1;stroke-dasharray:none;stroke-dashoffset:0"
     id="path4702-8-5-8-7"
     sodipodi:sides="6"
     sodipodi:cx="151.22752"
     sodipodi:cy="105.67794"
     sodipodi:r1="199.20744"
     sodipodi:r2="172.51872"
     sodipodi:arg1="1.0460006"
     sodipodi:arg2="1.5695993"
     inkscape:flatsided="true"
     inkscape:rounded="0"
     inkscape:randomized="0"
     d="M 251.03767,278.0773 51.83037,278.31574 -47.979777,105.91638 51.417377,-66.721422 250.62468,-66.959863 350.43482,105.4395 z"
     transform="matrix(0,0.24207282,-0.24207282,0,133.68329,188.77542)" />
  <path
     sodipodi:type="star"
     style="fill:none;stroke:#000000;stroke-width:35.12966537;stroke-linejoin:round;stroke-miterlimit:4;stroke-opacity:1;stroke-dasharray:none;stroke-dashoffset:0"
     id="path4702-8-3-8-7"
     sodipodi:sides="6"
     sodipodi:cx="151.22752"
     sodipodi:cy="105.67794"
     sodipodi:r1="199.20744"
     sodipodi:r2="172.51872"
     sodipodi:arg1="1.0460006"
     sodipodi:arg2="1.5695993"
     inkscape:flatsided="true"
     inkscape:rounded="0"
     inkscape:randomized="0"
     d="M 251.03767,278.0773 51.83037,278.31574 -47.979777,105.91638 51.417377,-66.721422 250.62468,-66.959863 350.43482,105.4395 z"
     transform="matrix(0,-0.24207282,0.24207282,0,82.517646,310.10771)" />
  <path
     sodipodi:type="star"
     style="fill:none;stroke:#000000;stroke-width:35.12966537;stroke-linejoin:round;stroke-miterlimit:4;stroke-opacity:1;stroke-dasharray:none;stroke-dashoffset:0"
     id="path4702-8-5-8-3-2"
     sodipodi:sides="6"
     sodipodi:cx="151.22752"
     sodipodi:cy="105.67794"
     sodipodi:r1="199.20744"
     sodipodi:r2="172.51872"
     sodipodi:arg1="1.0460006"
     sodipodi:arg2="1.5695993"
     inkscape:flatsided="true"
     inkscape:rounded="0"
     inkscape:randomized="0"
     d="M 251.03767,278.0773 51.83037,278.31574 -47.979777,105.91638 51.417377,-66.721422 250.62468,-66.959863 350.43482,105.4395 z"
     transform="matrix(0,-0.24207282,0.24207282,0,166.12999,310.10771)" />
  <text
     xml:space="preserve"
     style="font-size:40px;font-style:normal;font-variant:normal;font-weight:500;font-stretch:normal;line-height:125%;letter-spacing:0px;word-spacing:0px;fill:#000000;fill-opacity:1;stroke:none;font-family:Kinnari;-inkscape-font-specification:Kinnari Medium"
     x="292.5"
     y="-242.5"
     id="text4357"
     sodipodi:linespacing="125%"
     transform="scale(0.8,0.8)"><tspan
       sodipodi:role="line"
       id="tspan4359"
       x="292.5"
       y="-242.5">Dark orange.</tspan></text>
  <path
     sodipodi:type="star"
     style="fill:#000000;stroke:#000000;stroke-width:2.55200005;stroke-linejoin:round;stroke-miterlimit:4;stroke-opacity:1;stroke-dasharray:none;stroke-dashoffset:0"
     id="path4569"
     sodipodi:sides="6"
     sodipodi:cx="1248.7805"
     sodipodi:cy="185.72234"
     sodipodi:r1="32.308891"
     sodipodi:r2="27.98032"
     sodipodi:arg1="0.83798123"
     sodipodi:arg2="1.36158"
     inkscape:flatsided="true"
     inkscape:rounded="0"
     inkscape:randomized="0"
     d="m 1270.394,209.73735 -31.6043,6.71034 -21.6135,-24.01501 9.9908,-30.72535 31.6044,-6.71035 21.6135,24.01501 z"
     transform="matrix(0.6028611,-0.05546568,0.05014075,0.66688467,264.48823,131.69051)" />
</svg>
